<svg width="115" height="38" viewBox="0 0 115 38" fill="none" xmlns="http://www.w3.org/2000/svg">
<path d="M10.266 25.753L14.01 15.205H14.091L17.714 25.753H10.266ZM14.01 -0.000976562L0 36.865H6.361L8.616 30.465H19.365L21.539 36.865H28.101L14.091 -0.000976562H14.01ZM48.271 17.782H54.39C54.2376 16.2288 53.773 14.7223 53.024 13.353C52.3294 12.1 51.3918 10.9982 50.266 10.112C49.1324 9.22922 47.8512 8.55443 46.482 8.11903C45.0309 7.65641 43.516 7.42558 41.993 7.43502C39.9536 7.40295 37.9303 7.80092 36.055 8.60302C34.3548 9.33931 32.8363 10.4387 31.606 11.824C30.3743 13.2313 29.4292 14.8655 28.824 16.635C28.1659 18.559 27.8392 20.5807 27.858 22.614C27.8412 24.6077 28.168 26.5893 28.824 28.472C29.4287 30.2169 30.3728 31.8248 31.602 33.203C32.839 34.5657 34.3569 35.6438 36.051 36.363C37.9298 37.1517 39.9517 37.5422 41.989 37.51C43.6473 37.529 45.296 37.2565 46.86 36.705C48.292 36.1942 49.6063 35.3997 50.724 34.369C51.8442 33.3222 52.747 32.0649 53.381 30.669C54.0753 29.1297 54.4976 27.4816 54.629 25.798H48.513C48.36 27.5265 47.6622 29.1617 46.52 30.468C45.9363 31.0708 45.2297 31.5409 44.4483 31.8465C43.6668 32.1521 42.8288 32.286 41.991 32.239C40.7327 32.2776 39.4855 31.9936 38.368 31.414C37.3991 30.886 36.5707 30.1337 35.952 29.22C35.3231 28.2815 34.8664 27.2386 34.603 26.14C34.3196 24.9872 34.1776 23.8042 34.18 22.617C34.1768 21.3833 34.3188 20.1535 34.603 18.953C34.861 17.8278 35.3179 16.7577 35.952 15.793C36.5661 14.8702 37.3952 14.1104 38.368 13.579C39.4855 12.9995 40.7327 12.7155 41.991 12.754C42.7522 12.751 43.5081 12.8803 44.225 13.136C44.9181 13.381 45.5646 13.7418 46.137 14.203C46.6926 14.6502 47.1689 15.1877 47.546 15.793C47.9225 16.3988 48.1694 17.076 48.271 17.782V17.782ZM57.45 8.12003V36.865H63.368V16.695H63.449L70.494 36.865H75.365L82.41 16.494H82.491V36.865H88.409V8.12003H79.509L73.152 27.887H73.071L66.348 8.12003H57.45ZM92.476 8.12003V36.865H114.297V31.547H98.797V24.502H112.724V19.59H98.798V13.43H113.976V8.11602L92.476 8.12003Z" fill="#C23F81"/>
</svg>
