<svg width="55" height="18" viewBox="0 0 55 18" fill="none" xmlns="http://www.w3.org/2000/svg">
<path d="M9.74109 5.21729V5.93115H8.13074C8.29122 6.15804 8.42126 6.41813 8.52087 6.71143C8.62602 6.99919 8.67859 7.28418 8.67859 7.56641C8.67859 8.00911 8.58175 8.41032 8.38806 8.77002C8.19438 9.12972 7.92322 9.43962 7.57458 9.69971C7.23149 9.9598 6.81921 10.1618 6.33777 10.3057C5.85632 10.444 5.32507 10.5132 4.74402 10.5132C4.5282 10.5132 4.30684 10.4966 4.07996 10.4634C3.8586 10.4302 3.66492 10.3859 3.4989 10.3306C3.33842 10.4634 3.20284 10.6183 3.09216 10.7954C2.98149 10.967 2.92615 11.1413 2.92615 11.3184C2.92615 11.4899 3.01746 11.6255 3.20007 11.7251C3.38822 11.8247 3.65385 11.8828 3.99695 11.8994L7.13464 12.0405C7.63822 12.0627 8.05603 12.1235 8.38806 12.2231C8.72563 12.3172 8.99402 12.4473 9.19324 12.6133C9.39246 12.7738 9.53357 12.9647 9.61658 13.186C9.69958 13.4074 9.74109 13.6564 9.74109 13.9331C9.74109 14.4256 9.62488 14.8711 9.39246 15.2695C9.16557 15.6735 8.8363 16.0166 8.40466 16.2988C7.97302 16.5811 7.44454 16.7996 6.81921 16.9546C6.19942 17.1095 5.49662 17.187 4.71082 17.187C4.00802 17.187 3.39376 17.1455 2.86804 17.0625C2.34233 16.9795 1.90515 16.8605 1.55652 16.7056C1.20789 16.5562 0.947795 16.3735 0.776245 16.1577C0.604696 15.9474 0.518921 15.7095 0.518921 15.4438C0.518921 15.2114 0.577026 14.9873 0.693237 14.7715C0.809448 14.5612 0.958862 14.3564 1.14148 14.1572C1.3241 13.9635 1.52608 13.7754 1.74744 13.5928C1.96879 13.4102 2.18738 13.2358 2.4032 13.0698C2.24825 13.02 2.1016 12.9619 1.96326 12.8955C1.83044 12.8236 1.71423 12.7433 1.61462 12.6548C1.51501 12.5662 1.43754 12.4722 1.3822 12.3726C1.32686 12.2674 1.29919 12.1567 1.29919 12.0405C1.29919 11.869 1.34347 11.6919 1.43201 11.5093C1.52608 11.3211 1.65059 11.144 1.80554 10.978C1.96602 10.8065 2.14864 10.6515 2.35339 10.5132C2.56368 10.3693 2.7878 10.2559 3.02576 10.1729C2.45577 9.92936 2.00753 9.5918 1.68103 9.16016C1.36007 8.72298 1.19958 8.22217 1.19958 7.65771C1.19958 7.24268 1.29366 6.84977 1.48181 6.479C1.6755 6.10824 1.94112 5.78451 2.27869 5.50781C2.61625 5.23112 3.00916 5.01253 3.4574 4.85205C3.91117 4.69157 4.40092 4.61133 4.92664 4.61133C5.18119 4.61133 5.43022 4.62793 5.67371 4.66113C5.92273 4.69434 6.15238 4.73861 6.36267 4.79395C6.57849 4.84928 6.76664 4.91292 6.92712 4.98486C7.09314 5.0568 7.22319 5.13428 7.31726 5.21729H9.74109ZM2.92615 13.2026C2.79887 13.2967 2.68819 13.4019 2.59412 13.5181C2.50004 13.6343 2.4198 13.756 2.35339 13.8833C2.28699 14.0106 2.23718 14.1379 2.20398 14.2651C2.17078 14.3979 2.15417 14.5225 2.15417 14.6387C2.15417 14.8268 2.22058 15.0067 2.35339 15.1782C2.48621 15.3498 2.68542 15.502 2.95105 15.6348C3.21667 15.7676 3.54871 15.8727 3.94714 15.9502C4.35111 16.0277 4.81873 16.0664 5.34998 16.0664C5.91443 16.0664 6.41801 16.0221 6.86072 15.9336C7.30896 15.8451 7.68803 15.7261 7.99792 15.5767C8.31335 15.4328 8.55131 15.2695 8.71179 15.0869C8.87781 14.9098 8.96082 14.73 8.96082 14.5474C8.96082 14.3592 8.91101 14.196 8.8114 14.0576C8.71733 13.9193 8.57898 13.8058 8.39636 13.7173C8.21375 13.6287 7.99239 13.5623 7.7323 13.5181C7.47221 13.4738 7.17891 13.4517 6.85242 13.4517C6.44291 13.4517 6.03064 13.4406 5.6156 13.4185C5.20056 13.4019 4.81319 13.3797 4.45349 13.3521C4.09379 13.3299 3.77836 13.3022 3.5072 13.269C3.23604 13.2414 3.04236 13.2192 2.92615 13.2026ZM5.02625 10.0732C5.2642 10.0732 5.49386 10.0207 5.71521 9.91553C5.93656 9.80485 6.13025 9.65544 6.29626 9.46729C6.46781 9.27913 6.60339 9.06055 6.703 8.81152C6.80261 8.55697 6.85242 8.28304 6.85242 7.98975C6.85242 7.57471 6.79431 7.1901 6.6781 6.83594C6.56742 6.47624 6.41524 6.16634 6.22156 5.90625C6.02787 5.64062 5.80098 5.43311 5.54089 5.28369C5.2808 5.13428 5.00688 5.05957 4.71912 5.05957C4.43689 5.05957 4.19063 5.11768 3.98035 5.23389C3.77559 5.3501 3.60681 5.51335 3.474 5.72363C3.34119 5.92839 3.24158 6.17188 3.17517 6.4541C3.1143 6.73079 3.08386 7.02962 3.08386 7.35059C3.08386 7.73242 3.1309 8.08936 3.22498 8.42139C3.31905 8.75342 3.45186 9.04395 3.62341 9.29297C3.79496 9.53646 3.99972 9.72738 4.23767 9.86572C4.47563 10.0041 4.73848 10.0732 5.02625 10.0732ZM16.6058 13.269C16.3845 13.1584 16.1963 13.0034 16.0414 12.8042C15.892 12.5994 15.8173 12.367 15.8173 12.1069C15.618 12.2563 15.4216 12.4113 15.2279 12.5718C15.0398 12.7323 14.8322 12.8789 14.6053 13.0117C14.384 13.139 14.135 13.2441 13.8583 13.3271C13.5871 13.4102 13.2717 13.4517 12.912 13.4517C12.58 13.4517 12.2784 13.3963 12.0072 13.2856C11.7416 13.1805 11.5147 13.0339 11.3265 12.8457C11.1439 12.6576 11 12.4334 10.8949 12.1733C10.7953 11.9132 10.7455 11.6338 10.7455 11.335C10.7455 10.9697 10.8174 10.6405 10.9613 10.3472C11.1052 10.0539 11.3016 9.79378 11.5507 9.56689C11.8052 9.33447 12.0985 9.12972 12.4305 8.95264C12.7626 8.77002 13.1167 8.60954 13.493 8.47119C13.8693 8.32731 14.2567 8.20003 14.6552 8.08936C15.0536 7.97868 15.441 7.8763 15.8173 7.78223V7.25098C15.8173 6.86361 15.7896 6.53711 15.7343 6.27148C15.6789 6.00586 15.5931 5.79281 15.4769 5.63232C15.3607 5.46631 15.2113 5.3501 15.0287 5.28369C14.8516 5.21175 14.6385 5.17578 14.3895 5.17578C14.1516 5.17578 13.933 5.22282 13.7338 5.31689C13.5345 5.41097 13.3575 5.53825 13.2025 5.69873C13.0531 5.85368 12.9286 6.03906 12.829 6.25488C12.7349 6.46517 12.6713 6.68929 12.6381 6.92725H11.0941C11.1384 6.56201 11.2629 6.23551 11.4677 5.94775C11.6779 5.65999 11.9408 5.41927 12.2562 5.22559C12.5717 5.02637 12.9286 4.87419 13.327 4.76904C13.731 4.6639 14.1488 4.61133 14.5804 4.61133C15.1338 4.61133 15.5987 4.66667 15.975 4.77734C16.3513 4.88249 16.6529 5.0319 16.8798 5.22559C17.1066 5.41927 17.2671 5.65723 17.3612 5.93945C17.4608 6.21615 17.5106 6.52327 17.5106 6.86084V12.1069C17.5106 12.367 17.5853 12.5994 17.7347 12.8042C17.8897 13.0034 18.0778 13.1584 18.2992 13.269H16.6058ZM15.8173 8.32178C15.5738 8.39925 15.322 8.48779 15.0619 8.5874C14.8018 8.68701 14.5472 8.80046 14.2982 8.92773C14.0492 9.04948 13.8112 9.18229 13.5844 9.32617C13.3575 9.47005 13.1582 9.625 12.9867 9.79102C12.8151 9.95703 12.6796 10.1313 12.58 10.314C12.4803 10.4966 12.4305 10.6875 12.4305 10.8867C12.4305 11.097 12.4693 11.2962 12.5468 11.4844C12.6242 11.667 12.7266 11.8302 12.8539 11.9741C12.9812 12.1125 13.1278 12.2231 13.2938 12.3062C13.4598 12.3836 13.6314 12.4224 13.8085 12.4224C13.9966 12.4224 14.1765 12.3975 14.348 12.3477C14.5196 12.2979 14.6856 12.2314 14.8461 12.1484C15.0066 12.0599 15.167 11.9603 15.3275 11.8496C15.488 11.7389 15.6512 11.62 15.8173 11.4927V8.32178ZM21.9432 13.269H20.2499V0.91748L21.4535 0.436035H21.9432V13.269ZM26.6249 13.269H24.9315V0.91748L26.1351 0.436035H26.6249V13.269ZM33.2074 13.4517C32.6319 13.4517 32.0896 13.3438 31.5804 13.1279C31.0769 12.9121 30.6369 12.6188 30.2606 12.248C29.8843 11.8773 29.5855 11.4429 29.3641 10.9448C29.1483 10.4412 29.0404 9.90723 29.0404 9.34277C29.0404 8.66211 29.14 8.03402 29.3392 7.4585C29.5385 6.87744 29.8207 6.37663 30.1859 5.95605C30.5511 5.53548 30.9883 5.20622 31.4974 4.96826C32.0121 4.73031 32.5848 4.61133 33.2157 4.61133C33.7691 4.61133 34.2782 4.71094 34.743 4.91016C35.2079 5.10384 35.6063 5.3667 35.9384 5.69873C36.2759 6.02523 36.536 6.4043 36.7186 6.83594C36.9068 7.26758 37.0009 7.71859 37.0009 8.18896H30.6674C30.6674 8.75895 30.7393 9.28743 30.8832 9.77441C31.0326 10.2614 31.2401 10.682 31.5057 11.0361C31.7714 11.3903 32.0868 11.667 32.452 11.8662C32.8173 12.0654 33.2185 12.165 33.6556 12.165C34.0209 12.165 34.3723 12.1069 34.7098 11.9907C35.0474 11.869 35.3518 11.7113 35.6229 11.5176C35.8996 11.3239 36.1348 11.1025 36.3285 10.8535C36.5222 10.6045 36.6578 10.3472 36.7352 10.0815L37.225 10.2974C37.1032 10.7345 36.9068 11.144 36.6356 11.5259C36.3645 11.9077 36.0463 12.2425 35.681 12.5303C35.3213 12.8125 34.9284 13.0366 34.5023 13.2026C34.0762 13.3687 33.6446 13.4517 33.2074 13.4517ZM34.8842 7.5083C34.8842 7.18734 34.826 6.88851 34.7098 6.61182C34.5992 6.33512 34.4442 6.09717 34.245 5.89795C34.0458 5.6932 33.8134 5.53271 33.5477 5.4165C33.2821 5.30029 32.9971 5.24219 32.6927 5.24219C32.4382 5.24219 32.1947 5.30029 31.9623 5.4165C31.7299 5.52718 31.5223 5.6849 31.3397 5.88965C31.1571 6.08887 31.0049 6.32682 30.8832 6.60352C30.767 6.88021 30.6978 7.17904 30.6757 7.5L34.8842 7.5083ZM40.8275 4.61133H41.0848L41.309 6.34619C41.4418 6.09163 41.6078 5.85921 41.807 5.64893C42.0062 5.43864 42.2248 5.25602 42.4628 5.10107C42.7063 4.94613 42.9608 4.82715 43.2264 4.74414C43.4976 4.6556 43.7715 4.61133 44.0482 4.61133C44.2972 4.61133 44.5407 4.64453 44.7787 4.71094C45.0222 4.77734 45.2491 4.88249 45.4594 5.02637L44.9281 6.4458C44.8174 6.32406 44.7012 6.22721 44.5795 6.15527C44.4577 6.0778 44.3332 6.01969 44.2059 5.98096C44.0787 5.93669 43.9486 5.90902 43.8158 5.89795C43.683 5.88688 43.5502 5.88135 43.4174 5.88135C43.2071 5.88135 42.9996 5.91178 42.7948 5.97266C42.5956 6.03353 42.4047 6.12484 42.222 6.24658C42.0394 6.36279 41.8706 6.51497 41.7157 6.70312C41.5608 6.88574 41.4252 7.10156 41.309 7.35059V13.269H39.6239V5.07617L40.8275 4.61133ZM46.6796 15.2778C46.746 15.3055 46.8179 15.3415 46.8954 15.3857C46.9784 15.43 47.0669 15.4715 47.161 15.5103C47.2606 15.5545 47.3685 15.5905 47.4847 15.6182C47.601 15.6458 47.731 15.6597 47.8749 15.6597C48.052 15.6597 48.218 15.6099 48.3729 15.5103C48.5279 15.4106 48.669 15.2861 48.7963 15.1367C48.9235 14.9873 49.037 14.8241 49.1366 14.647C49.2362 14.4699 49.3192 14.3039 49.3856 14.1489L49.9584 12.8706L45.6171 4.76904H47.5345L50.8051 10.9116L53.4862 4.76904H54.391L50.0497 14.7632C49.8671 15.1782 49.6568 15.5379 49.4188 15.8423C49.1864 16.1466 48.9374 16.3984 48.6718 16.5977C48.4061 16.7969 48.1322 16.9435 47.85 17.0376C47.5677 17.1372 47.2938 17.187 47.0282 17.187C46.829 17.187 46.6353 17.1566 46.4471 17.0957C46.259 17.0348 46.1013 16.9546 45.974 16.855L46.6796 15.2778Z" fill="white"/>
</svg>

