<svg width="84" height="28" viewBox="0 0 84 28" fill="none" xmlns="http://www.w3.org/2000/svg">
<path d="M7.492 18.796L10.224 11.098H10.284L12.928 18.798L7.492 18.796ZM10.224 0L0 26.905H4.642L6.287 22.233H14.132L15.724 26.905H20.513L10.284 0H10.224ZM35.224 12.978H39.69C39.5778 11.8443 39.2376 10.745 38.69 9.746C38.183 8.83163 37.4986 8.0276 36.677 7.381C35.8523 6.73778 34.9202 6.24553 33.924 5.927C32.8651 5.58912 31.7595 5.42038 30.648 5.427C29.1595 5.40352 27.6828 5.69382 26.314 6.279C25.0731 6.81646 23.9649 7.61889 23.067 8.63C22.1693 9.65726 21.4807 10.8499 21.04 12.141C20.5597 13.545 20.3214 15.0202 20.335 16.504C20.3228 17.9589 20.5613 19.4051 21.04 20.779C21.4813 22.0522 22.1702 23.2254 23.067 24.231C23.9698 25.2254 25.0776 26.0122 26.314 26.537C27.6853 27.1126 29.161 27.3976 30.648 27.374C31.8583 27.3877 33.0616 27.1887 34.203 26.786C35.2481 26.4149 36.2076 25.8367 37.024 25.086C37.8414 24.3221 38.5003 23.4046 38.963 22.386C39.4698 21.2625 39.778 20.0597 39.874 18.831H35.405C35.2934 20.0923 34.7843 21.2856 33.951 22.239C33.5251 22.679 33.0095 23.0222 32.4393 23.2453C31.869 23.4684 31.2574 23.5662 30.646 23.532C29.7279 23.5608 28.8177 23.3542 28.002 22.932C27.2951 22.547 26.6906 21.9983 26.239 21.332C25.7802 20.647 25.447 19.8858 25.255 19.084C25.0481 18.2427 24.9443 17.3794 24.946 16.513C24.9438 15.6126 25.0475 14.7151 25.255 13.839C25.4432 13.0179 25.7764 12.237 26.239 11.533C26.6871 10.8595 27.2921 10.3049 28.002 9.917C28.8177 9.49478 29.7279 9.28823 30.646 9.317C31.2017 9.31489 31.7536 9.40929 32.277 9.596C32.7845 9.7744 33.2579 10.0378 33.677 10.375C34.0824 10.7016 34.4299 11.094 34.705 11.536C34.975 11.976 35.1516 12.4668 35.224 12.978ZM41.924 5.926V26.905H46.243V12.185H46.302L51.444 26.905H54.999L60.144 12.038H60.203V26.905H64.524V5.927H58.024L53.387 20.348H53.324L48.424 5.927L41.924 5.926ZM67.486 5.926V26.905H83.415V23.027H72.103V17.885H82.269V14.3H72.103V9.8H83.18V5.922L67.486 5.926Z" fill="white"/>
</svg>

